<svg width="176" height="19" fill="none" xmlns="http://www.w3.org/2000/svg"><path d="M14.2383 13.8281c0 .6485-.1211 1.2071-.3633 1.6758-.2344.4688-.5508.8672-.9492 1.1953-.3985.3281-.8594.5977-1.3828.8086a9.9334 9.9334 0 01-1.6172.4805 12.5187 12.5187 0 01-1.6992.2344c-.5625.039-1.0899.0585-1.582.0585-.4844 0-.9883-.0195-1.5118-.0585a14.902 14.902 0 01-1.5469-.1758 14.311 14.311 0 01-1.5234-.3399c-.5-.1484-.9727-.332-1.418-.5508L.6211 2.0625c.4375-.1797.9023-.3398 1.3945-.4805a13.982 13.982 0 011.5-.3633A15.1443 15.1443 0 015.0508.9961c.5078-.0547 1-.082 1.4765-.082.5547 0 1.1133.0351 1.6758.1054.5703.0703 1.1172.1875 1.6407.3516.5234.164 1.0117.3789 1.4648.6445.4531.2578.8476.5781 1.1836.961.3437.3828.6094.828.7969 1.3359.1953.5078.2929 1.0938.2929 1.7578 0 .4375-.0625.8477-.1875 1.2305-.125.3828-.3047.7265-.539 1.0312-.2344.3047-.5196.5664-.8555.7852-.3359.211-.7148.3672-1.1367.4687.5078.1328.9687.3282 1.3828.586.4219.2578.7773.5703 1.0664.9375.2969.3672.5234.7812.6797 1.2422.164.4609.2461.9531.2461 1.4765zM8.2852 7.1484c0-.2265-.047-.418-.1407-.5742-.0937-.164-.211-.2969-.3515-.3984a1.3257 1.3257 0 00-.4453-.2227c-.1563-.0469-.297-.0703-.422-.0703a1.509 1.509 0 00-.457.0703 4.126 4.126 0 00-.4335.164l-.0704 2.6017c.1797 0 .4024-.0157.668-.047a2.8083 2.8083 0 00.7617-.1991c.25-.1094.461-.2657.6328-.4688.172-.211.2579-.496.2579-.8555zM6.621 10.9688a3.015 3.015 0 00-.6563.0703l-.0468 2.6718c.1172.0235.2304.0469.3398.0703.1172.0157.2305.0235.3399.0235.164 0 .3437-.0156.539-.0469a1.7496 1.7496 0 00.5508-.2109c.1719-.1094.3125-.2539.4219-.4336.1172-.1797.1758-.418.1758-.7149 0-.2968-.0586-.539-.1758-.7265-.1094-.1875-.2461-.3321-.4102-.4336a1.3437 1.3437 0 00-.539-.211c-.1954-.039-.375-.0585-.5391-.0585zm21.0937-2.4375a14.898 14.898 0 01-.1406 2.039 48.4807 48.4807 0 00-3.9844.4219l-3.9609.5625c.2031.5625.5195 1.0117.9492 1.3476.4375.336.9571.5039 1.5586.5039.3125 0 .6524-.0585 1.0195-.1757a8.8535 8.8535 0 001.1133-.4336 13.5393 13.5393 0 001.0547-.5742c.336-.2032.625-.3868.8672-.5508l-.5625 5.3203a5.098 5.098 0 01-.9961.5976 6.6023 6.6023 0 01-1.1016.3985 8.4381 8.4381 0 01-1.1601.2226 9.6292 9.6292 0 01-1.1484.0703c-.7735 0-1.4805-.1054-2.1211-.3164-.6407-.2109-1.2227-.5039-1.7461-.8789a6.7306 6.7306 0 01-1.3594-1.3476c-.3906-.5156-.7149-1.0781-.9727-1.6875-.2578-.6094-.4531-1.2539-.5859-1.9336a10.7308 10.7308 0 01-.1992-2.0625c0-.7266.0664-1.4531.1992-2.1797.1328-.7266.332-1.4258.5977-2.0977.2734-.6718.6132-1.293 1.0195-1.8632.4141-.5782.8945-1.082 1.4414-1.5118.5469-.4296 1.1641-.7656 1.8516-1.0078.6953-.2422 1.4609-.3633 2.2968-.3633.6953 0 1.3282.0977 1.8985.293.5781.1875 1.0898.4531 1.5351.7969.4531.336.8438.7383 1.1719 1.207.3359.4688.6094.9844.8203 1.5469.2188.5547.3789 1.1445.4805 1.7695.1094.6172.164 1.2461.164 1.8868zm-4.6875-.6094c0-.2188-.0234-.4414-.0703-.668-.0468-.2344-.125-.4453-.2343-.6328-.1016-.1875-.2383-.3399-.4102-.457-.1719-.125-.3867-.1875-.6445-.1875-.3125 0-.5899.0859-.8321.2578-.2343.164-.4375.375-.6093.6328-.1719.25-.3125.5234-.4219.8203-.1094.2969-.1914.5703-.2461.8203l3.4687-.3281v-.2578zM40.5 12c0 1.0703-.1875 1.9961-.5625 2.7773-.3672.7735-.875 1.4141-1.5234 1.9219-.6407.5-1.3946.8711-2.2618 1.1133-.8593.2344-1.7851.3516-2.7773.3516-.3828 0-.8047-.0508-1.2656-.1524a16.5704 16.5704 0 01-1.3828-.375 27.4119 27.4119 0 01-1.3594-.4922c-.4297-.1797-.8125-.3476-1.1484-.5039l.5156-4.5937c.664.3984 1.3984.7031 2.2031.914.8125.2032 1.6094.3047 2.3906.3047.1485 0 .3281-.0039.5391-.0117a2.8902 2.8902 0 00.5976-.1055c.1954-.0625.3594-.1523.4922-.2695.1328-.1172.1992-.2851.1992-.5039 0-.1484-.0468-.2734-.1406-.375-.0937-.1094-.2148-.1953-.3633-.2578-.1484-.0703-.3164-.1211-.5039-.1524a4.704 4.704 0 00-.5507-.082 5.8477 5.8477 0 00-.5039-.0234h-.375c-.6719 0-1.2852-.1055-1.8399-.3164-.5469-.211-1.0195-.5078-1.418-.8907-.3906-.3906-.6953-.8593-.914-1.4062-.2188-.5547-.3281-1.168-.3281-1.8399 0-.9218.1835-1.746.5507-2.4726.375-.7344.8711-1.3555 1.4883-1.8633.625-.5156 1.3399-.9101 2.1445-1.1836.8047-.2734 1.6368-.4101 2.4961-.4101.3828 0 .7774.0156 1.1836.0468a10.382 10.382 0 011.2071.1407c.4062.0703.8007.1601 1.1836.2695a6.9702 6.9702 0 011.0898.4102l-.4453 4.7578c-.5313-.1797-1.0899-.3282-1.6758-.4454-.5781-.125-1.1445-.1875-1.6992-.1875-.1016 0-.2344.004-.3984.0118-.1563 0-.3243.0117-.504.0351a4.3282 4.3282 0 00-.5273.082c-.1797.0391-.3398.0938-.4805.1641-.1406.0625-.2539.1485-.3398.2578-.086.1094-.125.2383-.1172.3868.0078.1718.0703.3046.1875.3984.125.0937.2813.164.4687.211.1954.039.4063.0585.6329.0585.2343 0 .4648-.0039.6914-.0117a22.075 22.075 0 01.6328-.0352c.1953-.0156.3555-.0195.4805-.0117.625.039 1.1874.1719 1.6874.3985.5.2265.9219.5273 1.2657.9023.3515.375.6172.8242.7969 1.3477.1874.5156.2812 1.0859.2812 1.7109zM53.3906 1.4766l-.1172 4.9687-3.4922.1406-.4218 10.875-4.9453.2579-.4453-10.875-3.4922.1875.1406-5.5313 12.7734-.0234zm81.0704 5.7187c0 .7578-.113 1.4297-.34 2.0156-.226.586-.539 1.1016-.937 1.5469-.391.4375-.852.8086-1.383 1.1133-.531.2969-1.102.543-1.711.7383-.602.1875-1.227.3281-1.875.4218-.649.086-1.285.1329-1.91.1407v4.9922h-5.461v-2.6016c.008-.8437.011-1.6797.011-2.5078.008-.8359.012-1.6758.012-2.5195.008-.8438.016-1.7149.024-2.6133.015-.9531.019-1.9063.011-2.8594-.007-.9531.012-1.914.059-2.8828 1-.2969 2-.5195 3-.668 1-.1484 2.031-.2226 3.094-.2226.601 0 1.203.0507 1.804.1523.602.0938 1.176.2461 1.723.457.555.211 1.066.4766 1.535.797.477.3124.887.6874 1.231 1.125.343.4374.613.9374.808 1.5.203.5624.305 1.1874.305 1.875zm-5.203.3985c0-.5079-.156-.9024-.469-1.1836-.305-.2891-.703-.4336-1.195-.4336-.164 0-.336.0156-.516.0468a4.559 4.559 0 00-.492.0938l-.141 3.4219c.11.0156.215.0234.317.0234h.316c.281 0 .551-.0469.809-.1406.265-.0938.5-.2266.703-.3985.203-.1797.363-.3867.48-.621.125-.2422.188-.5118.188-.8087zm16.148 4.1953l-.492 5.2031-9.867.7734.375-16.7343h6.094l-.868 10.7578h4.758zm15.328 5.2031l-5.812.75-.703-2.6484h-2.672l-.586 2.6484-5.977-.586 4.664-15.6093 6.516-.3281 4.57 15.7734zm-6.937-5.4844l-.891-4.0781-.867 4.0781h1.758zm21.726.5625c0 .8828-.011 1.7578-.035 2.625a96.116 96.116 0 01-.082 2.6016l-6.75-.1172a95.26 95.26 0 00.61-4.1367c.172-1.3828.257-2.7774.257-4.1836 0-.1016-.003-.2657-.011-.4922a16.683 16.683 0 00-.047-.7617c-.024-.289-.059-.582-.106-.879-.039-.3046-.097-.582-.175-.832-.071-.25-.161-.453-.27-.6093-.102-.1641-.226-.2461-.375-.2461-.266 0-.492.078-.68.2343-.179.1563-.332.3594-.457.6094-.117.2422-.211.5156-.281.8203a9.427 9.427 0 00-.164.914c-.031.3048-.055.5938-.07.8673-.008.2656-.012.4843-.012.6562-.039 1.3828-.07 2.7578-.094 4.125a371.067 371.067 0 01-.093 4.125l-5.977.2578c.156-2.7578.305-5.5.445-8.2265.149-2.7266.266-5.4688.352-8.2266l5.531-.2812-.047 1.875a8.017 8.017 0 01.703-.75c.258-.2344.532-.4336.821-.5977.289-.1719.593-.3047.914-.3984.328-.1016.672-.1524 1.031-.1524.664 0 1.246.1094 1.746.3282.5.2187.93.5156 1.289.8906.359.375.66.8203.902 1.336.243.5077.438 1.0507.586 1.6288.149.5781.262 1.1836.34 1.8164.078.625.129 1.2422.153 1.8516.031.6094.046 1.1992.046 1.7695v1.5586z" fill="#333"/><path d="M71.1562 1.4766l-.1171 4.9687-3.4922.1406-.4219 10.875-4.9453.2579-.4453-10.875-3.4922.1875.1406-5.5313 12.7734-.0234zm14.918 7.5468c0 .711-.082 1.3985-.2461 2.0625-.164.6563-.4023 1.2735-.7148 1.8516a7.5394 7.5394 0 01-1.125 1.5937A7.0519 7.0519 0 0182.5 15.7617c-.5469.3438-1.1445.6133-1.793.8086-.6484.1875-1.3359.2813-2.0625.2813-.7031 0-1.375-.0899-2.0156-.2696-.6328-.1797-1.2266-.4297-1.7812-.75a7.606 7.606 0 01-1.5118-1.1718 7.7959 7.7959 0 01-1.1484-1.5235c-.3125-.5625-.5586-1.164-.7383-1.8047-.1719-.6406-.2578-1.3086-.2578-2.0039 0-.6797.082-1.3437.2461-1.9922.1641-.6562.3984-1.2734.7031-1.8515a8.1515 8.1515 0 011.125-1.5938 7.4544 7.4544 0 011.4649-1.2539c.5468-.3515 1.1367-.625 1.7695-.8203.6328-.1953 1.3008-.293 2.0039-.293 1.1328 0 2.1641.1758 3.0938.5274.9375.3515 1.7343.8554 2.3906 1.5117.664.6484 1.1758 1.4375 1.5351 2.3672.3672.9219.5508 1.9531.5508 3.0937zm-5.2031.3047c0-.336-.0508-.6601-.1523-.9726-.0938-.3203-.2344-.6016-.4219-.8438-.1875-.25-.4219-.4492-.7031-.5976-.2735-.1563-.5899-.2344-.9493-.2344-.3672 0-.6953.0664-.9843.1992a2.2762 2.2762 0 00-.75.5508c-.2032.2265-.3594.496-.4688.8086-.1094.3047-.1641.6289-.1641.9726 0 .3282.0469.6563.1407.9844.0937.3281.2343.625.4218.8906.1875.2657.418.4805.6914.6446.2813.164.6055.2461.9727.2461.3672 0 .6953-.0704.9844-.211.2969-.1484.5469-.3437.75-.5859.2031-.25.3594-.5352.4687-.8555a3.0605 3.0605 0 00.1641-.996zM100.863 1.5c-.351 2.75-.652 5.4883-.9021 8.2148-.25 2.7188-.4882 5.4571-.7148 8.2149l-4.8047.3515.2109-1.8046c-.1562.1796-.3398.3359-.5507.4687a3.2206 3.2206 0 01-.6563.3281 4.4663 4.4663 0 01-.7265.1758c-.25.0313-.4883.043-.7149.0352-.5312-.0078-1.0312-.1094-1.5-.3047a5.2239 5.2239 0 01-1.2891-.7969c-.3906-.3359-.7421-.7226-1.0546-1.1601a8.551 8.551 0 01-.7969-1.3946 8.8561 8.8561 0 01-.4922-1.5c-.1094-.5078-.1641-1-.1641-1.4765 0-.7032.0118-1.4297.0352-2.1797a44.366 44.366 0 01.1523-2.2735 42.0818 42.0818 0 01.2696-2.25c.1171-.7421.2617-1.453.4336-2.1328.9531.0469 1.9101.0899 2.8711.129a50.357 50.357 0 002.871.035 793.5924 793.5924 0 00-.539 2.0509 44.013 44.013 0 00-.4688 2.0625 26.6674 26.6674 0 00-.3398 2.0742 17.1683 17.1683 0 00-.1289 2.1094c0 .164.0078.3984.0234.7031.0156.3047.0547.6055.1172.9023.0703.2969.1719.5586.3047.7852.1406.2187.3359.3281.5859.3281.2969 0 .5625-.125.7969-.375.2344-.2578.4414-.6015.6211-1.0312.1797-.4297.332-.9258.457-1.4883a19.526 19.526 0 00.3282-1.7578 29.6103 29.6103 0 00.2226-1.8633c.0547-.625.0938-1.211.1172-1.7578.0313-.5547.0508-1.0508.0586-1.4883.0156-.4375.0234-.7774.0234-1.0195a8.712 8.712 0 00-.0117-.457 9.7551 9.7551 0 00-.0351-.4571 96.794 96.794 0 003.0234.0469h1.1719c.398-.0078.797-.0235 1.195-.0469zm14.438 5.2031c0 .6094-.055 1.164-.164 1.664-.102.4923-.266.9454-.492 1.3595-.227.414-.52.7968-.879 1.1484-.36.3516-.793.6875-1.301 1.0078l2.789 4.9688-5.274 1.0312-1.804-4.9922-1.453.0469-.211 4.875h-5.039c.039-1.7813.074-3.5547.105-5.3203.039-1.7656.082-3.539.129-5.3203.016-.8985.031-1.789.047-2.6719.016-.8828.047-1.7734.094-2.6719.547-.2031 1.086-.371 1.617-.5039a14.2681 14.2681 0 011.594-.3047c.539-.078 1.082-.1289 1.629-.1523a30.1878 30.1878 0 011.699-.0469c.89 0 1.75.125 2.578.375.836.2422 1.574.6094 2.215 1.1016.64.4922 1.152 1.1054 1.535 1.8398.39.7344.586 1.5899.586 2.5664zm-5.25.375c0-.3281-.047-.6289-.141-.9023-.086-.2735-.219-.5078-.398-.7031-.172-.2032-.391-.3594-.657-.4688-.257-.1172-.562-.1758-.914-.1758-.156 0-.308.0117-.457.0352-.148.0156-.293.043-.433.082l-.188 4.3594h.282c.335 0 .675-.043 1.019-.129.352-.0859.664-.2187.938-.3984.281-.1796.507-.4101.679-.6914.18-.2812.27-.6172.27-1.0078z" fill="#EC1F46"/></svg>